<?xml version="1.0" standalone="no"?>
<!DOCTYPE svg PUBLIC "-//W3C//DTD SVG 20010904//EN"
 "http://www.w3.org/TR/2001/REC-SVG-20010904/DTD/svg10.dtd">
<svg version="1.0" xmlns="http://www.w3.org/2000/svg"
 width="260.000000pt" height="260.000000pt" viewBox="0 0 260.000000 260.000000"
 preserveAspectRatio="xMidYMid meet">
<metadata>
Created by potrace 1.14, written by Peter Selinger 2001-2017
</metadata>
<g transform="translate(0.000000,260.000000) scale(0.100000,-0.100000)"
fill="#000000" stroke="none">
<path d="M483 2583 c-51 -17 -112 -74 -138 -128 -19 -39 -19 -77 -20 -1140 -1
-605 3 -1113 8 -1130 24 -83 85 -148 161 -170 74 -22 1554 -22 1615 0 58 20
106 62 138 120 l27 50 1 1110 0 1110 -28 58 c-31 63 -84 107 -152 126 -28 8
-272 11 -805 10 -647 -1 -771 -3 -807 -16z m1100 -157 c23 -11 44 -55 39 -83
-2 -12 -16 -33 -31 -45 -27 -23 -30 -23 -287 -23 -142 1 -269 5 -280 8 -31 11
-55 64 -43 96 22 57 28 58 318 56 146 0 274 -5 284 -9z m-203 -651 c51 -11 99
-39 147 -85 166 -162 105 -448 -114 -530 -237 -89 -483 125 -427 370 7 30 19
67 26 81 67 129 219 197 368 164z m-220 -821 c77 -22 211 -21 285 2 73 22 130
20 215 -8 51 -17 76 -33 121 -77 70 -70 87 -116 85 -234 -1 -79 -3 -89 -26
-112 -14 -14 -37 -28 -50 -30 -46 -10 -965 -6 -990 3 -51 20 -65 47 -67 136
-2 107 16 162 72 224 54 60 130 99 213 111 63 8 63 8 142 -15z"/>
</g>
</svg>
